<svg height='100px' width='100px'  fill="#fff" xmlns="http://www.w3.org/2000/svg" xmlns:xlink="http://www.w3.org/1999/xlink" version="1.1" baseProfile="tiny" x="0px" y="0px" viewBox="0 0 100 100" xml:space="preserve"><path d="M57.875,48.438c-0.828,0-1.5,0.672-1.5,1.5v14.165l-8.238-6.216c-0.66-0.498-1.601-0.367-2.101,0.294  c-0.499,0.661-0.367,1.602,0.294,2.101l10.642,8.029c0.266,0.2,0.583,0.303,0.903,0.303c0.229,0,0.457-0.052,0.669-0.157  c0.509-0.254,0.831-0.773,0.831-1.343V49.938C59.375,49.109,58.703,48.438,57.875,48.438z M69.622,32.589  c-0.551-0.621-1.499-0.677-2.117-0.127l-8.13,7.214v-6.789c0-0.569-0.322-1.089-0.831-1.343c-0.509-0.253-1.119-0.197-1.572,0.146  L43.329,41.984h-6.274c-1.34,0-2.43,1.091-2.43,2.432v11.17c0,1.34,1.09,2.43,2.43,2.43h1.652l-8.202,7.278  c-0.62,0.55-0.677,1.498-0.127,2.117c0.297,0.335,0.709,0.505,1.123,0.505c0.354,0,0.709-0.125,0.994-0.378l37-32.832  C70.115,34.156,70.172,33.208,69.622,32.589z M56.375,42.338L42.088,55.016h-4.463V44.984h6.207c0.326,0,0.644-0.106,0.903-0.303  l11.64-8.784V42.338z"></path></svg>