<svg height='100px' width='100px'  fill="#fff" xmlns="http://www.w3.org/2000/svg" xmlns:xlink="http://www.w3.org/1999/xlink" version="1.1" baseProfile="tiny" x="0px" y="0px" viewBox="0 0 100 100" xml:space="preserve"><path d="M53.095,31.192c-0.509-0.253-1.117-0.197-1.572,0.146L37.591,41.85h-6.414c-1.351,0-2.449,1.1-2.449,2.451v11.4  c0,1.351,1.099,2.449,2.449,2.449h6.413l13.933,10.514c0.265,0.2,0.583,0.303,0.903,0.303c0.229,0,0.457-0.052,0.669-0.157  c0.509-0.254,0.831-0.773,0.831-1.343V32.535C53.926,31.966,53.604,31.446,53.095,31.192z M50.926,64.456l-11.93-9.003  c-0.26-0.196-0.577-0.303-0.903-0.303h-6.365V44.85h6.365c0.326,0,0.644-0.106,0.903-0.303l11.93-9.001V64.456z M65.144,50  c0-5.281-2.607-10.217-6.975-13.201c-0.683-0.467-1.617-0.292-2.085,0.392c-0.468,0.685-0.292,1.618,0.392,2.085  c3.549,2.426,5.668,6.435,5.668,10.725s-2.119,8.299-5.668,10.725c-0.684,0.467-0.859,1.4-0.392,2.085  c0.29,0.425,0.761,0.653,1.239,0.653c0.292,0,0.587-0.085,0.846-0.262C62.536,60.217,65.144,55.281,65.144,50z M61.04,30.633  c-0.683-0.466-1.617-0.292-2.085,0.392c-0.468,0.685-0.292,1.618,0.392,2.085c5.589,3.819,8.926,10.134,8.926,16.891  s-3.337,13.071-8.926,16.891c-0.684,0.467-0.859,1.4-0.392,2.085c0.29,0.425,0.761,0.653,1.239,0.653  c0.292,0,0.587-0.085,0.846-0.262C67.447,64.989,71.272,57.749,71.272,50S67.447,35.011,61.04,30.633z"></path></svg>